<svg width="25" height="27" viewBox="0 0 25 27" fill="none" xmlns="http://www.w3.org/2000/svg">
<path fill-rule="evenodd" clip-rule="evenodd" d="M4.03973 0.391568C4.22897 0.144728 4.5223 0 4.83333 0H20.1667C20.4777 0 20.771 0.144728 20.9603 0.391568L24.7879 5.38409C24.9208 5.55386 25 5.76768 25 6V23.5C25 24.4354 24.6199 25.328 23.9508 25.9826C23.2824 26.6365 22.3804 27 21.4444 27H3.55556C2.61957 27 1.71761 26.6365 1.04921 25.9826C0.380065 25.328 0 24.4354 0 23.5V6C0 5.76769 0.0792175 5.55388 0.212113 5.38411L4.03973 0.391568ZM19.6733 2L21.9733 5H3.02674L5.32674 2H19.6733ZM2 23.5V7H23V23.5C23 23.8906 22.8416 24.2698 22.5522 24.5529C22.2621 24.8367 21.864 25 21.4444 25H3.55556C3.13599 25 2.73792 24.8367 2.4478 24.5529C2.15843 24.2698 2 23.8906 2 23.5ZM8.38892 11C8.38892 10.4477 7.9412 10 7.38892 10C6.83663 10 6.38892 10.4477 6.38892 11C6.38892 12.5985 7.03823 14.1269 8.18663 15.2504C9.33429 16.3731 10.8863 17 12.5 17C14.1138 17 15.6658 16.3731 16.8134 15.2504C17.9618 14.1269 18.6111 12.5985 18.6111 11C18.6111 10.4477 18.1634 10 17.6111 10C17.0589 10 16.6111 10.4477 16.6111 11C16.6111 12.0537 16.1835 13.0688 15.4148 13.8207C14.6455 14.5734 13.5974 15 12.5 15C11.4027 15 10.3546 14.5734 9.58522 13.8207C8.81659 13.0688 8.38892 12.0537 8.38892 11Z" fill="black"/>
</svg>
