<svg width="24" height="24" viewBox="0 0 24 24" fill="none" xmlns="http://www.w3.org/2000/svg">
<path fill-rule="evenodd" clip-rule="evenodd" d="M2 10.7778C2 5.92993 5.92993 2 10.7778 2C15.6256 2 19.5555 5.92993 19.5555 10.7778C19.5555 13.1488 18.6154 15.3002 17.0877 16.8797C17.0487 16.9087 17.0114 16.9408 16.976 16.9762C16.9407 17.0115 16.9085 17.0489 16.8796 17.0878C15.3001 18.6155 13.1487 19.5555 10.7778 19.5555C5.92993 19.5555 2 15.6256 2 10.7778ZM17.6589 19.0733C15.7922 20.6234 13.3938 21.5555 10.7778 21.5555C4.82536 21.5555 0 16.7301 0 10.7778C0 4.82536 4.82536 0 10.7778 0C16.7301 0 21.5555 4.82536 21.5555 10.7778C21.5555 13.3939 20.6234 15.7924 19.0731 17.6591L23.7069 22.2928C24.0974 22.6834 24.0974 23.3165 23.7069 23.707C23.3163 24.0976 22.6832 24.0976 22.2927 23.707L17.6589 19.0733Z" fill="black"/>
</svg>
