<svg xmlns="http://www.w3.org/2000/svg" xmlns:xlink="http://www.w3.org/1999/xlink"><symbol id="icon-basket" viewBox="0 0 25 27">
<path fill-rule="evenodd" clip-rule="evenodd" d="M4.03973 0.391568C4.22897 0.144728 4.5223 0 4.83333 0H20.1667C20.4777 0 20.771 0.144728 20.9603 0.391568L24.7879 5.38409C24.9208 5.55386 25 5.76768 25 6V23.5C25 24.4354 24.6199 25.328 23.9508 25.9826C23.2824 26.6365 22.3804 27 21.4444 27H3.55556C2.61957 27 1.71761 26.6365 1.04921 25.9826C0.380065 25.328 0 24.4354 0 23.5V6C0 5.76769 0.0792175 5.55388 0.212113 5.38411L4.03973 0.391568ZM19.6733 2L21.9733 5H3.02674L5.32674 2H19.6733ZM2 23.5V7H23V23.5C23 23.8906 22.8416 24.2698 22.5522 24.5529C22.2621 24.8367 21.864 25 21.4444 25H3.55556C3.13599 25 2.73792 24.8367 2.4478 24.5529C2.15843 24.2698 2 23.8906 2 23.5ZM8.38892 11C8.38892 10.4477 7.9412 10 7.38892 10C6.83663 10 6.38892 10.4477 6.38892 11C6.38892 12.5985 7.03823 14.1269 8.18663 15.2504C9.33429 16.3731 10.8863 17 12.5 17C14.1138 17 15.6658 16.3731 16.8134 15.2504C17.9618 14.1269 18.6111 12.5985 18.6111 11C18.6111 10.4477 18.1634 10 17.6111 10C17.0589 10 16.6111 10.4477 16.6111 11C16.6111 12.0537 16.1835 13.0688 15.4148 13.8207C14.6455 14.5734 13.5974 15 12.5 15C11.4027 15 10.3546 14.5734 9.58522 13.8207C8.81659 13.0688 8.38892 12.0537 8.38892 11Z" fill="black"/>
</symbol><symbol id="icon-close" viewBox="0 0 20 20"><path d="M.293 18.291a1 1 0 101.414 1.414L10 11.413l8.292 8.292a1 1 0 101.414-1.414l-8.292-8.292 8.292-8.292A1 1 0 1018.291.293L9.999 8.585 1.707.293A1 1 0 10.293 1.707L8.585 10 .293 18.291z"/></symbol><symbol id="icon-heart" viewBox="0 0 30 27">
  <path d="M26.8409 3.21018C26.1568 2.50949 25.3445 1.95365 24.4504 1.57442C23.5563 1.19519 22.598 1 21.6302 1C20.6625 1 19.7042 1.19519 18.8101 1.57442C17.916 1.95365 17.1037 2.50949 16.4195 3.21018L14.9996 4.66368L13.5798 3.21018C12.1978 1.7955 10.3234 1.00073 8.36905 1.00073C6.41466 1.00073 4.54031 1.7955 3.15835 3.21018C1.77638 4.62487 1 6.54359 1 8.54426C1 10.5449 1.77638 12.4637 3.15835 13.8783L4.57823 15.3318L14.9996 26L25.4211 15.3318L26.8409 13.8783C27.5254 13.178 28.0684 12.3464 28.4389 11.4312C28.8093 10.5159 29 9.53496 29 8.54426C29 7.55356 28.8093 6.57258 28.4389 5.65734C28.0684 4.7421 27.5254 3.91054 26.8409 3.21018V3.21018Z" fill="transparent" stroke="currentColor" stroke-width="2" stroke-linecap="round" stroke-linejoin="round"/>
</symbol><symbol id="icon-minus" viewBox="0 0 16 2">
<line y1="1" x2="16" y2="1" stroke="black" stroke-width="2"/>
</symbol><symbol id="icon-plus" viewBox="0 0 16 16">
<path fill-rule="evenodd" clip-rule="evenodd" d="M9 7V0H7V7H0V9H7V16H9V9H16V7H9Z" fill="black"/>
</symbol><symbol id="icon-search" viewBox="0 0 24 24">
<path fill-rule="evenodd" clip-rule="evenodd" d="M2 10.7778C2 5.92993 5.92993 2 10.7778 2C15.6256 2 19.5555 5.92993 19.5555 10.7778C19.5555 13.1488 18.6154 15.3002 17.0877 16.8797C17.0487 16.9087 17.0114 16.9408 16.976 16.9762C16.9407 17.0115 16.9085 17.0489 16.8796 17.0878C15.3001 18.6155 13.1487 19.5555 10.7778 19.5555C5.92993 19.5555 2 15.6256 2 10.7778ZM17.6589 19.0733C15.7922 20.6234 13.3938 21.5555 10.7778 21.5555C4.82536 21.5555 0 16.7301 0 10.7778C0 4.82536 4.82536 0 10.7778 0C16.7301 0 21.5555 4.82536 21.5555 10.7778C21.5555 13.3939 20.6234 15.7924 19.0731 17.6591L23.7069 22.2928C24.0974 22.6834 24.0974 23.3165 23.7069 23.707C23.3163 24.0976 22.6832 24.0976 22.2927 23.707L17.6589 19.0733Z" fill="black"/>
</symbol><symbol id="icon-user" viewBox="0 0 24 27">
<path fill-rule="evenodd" clip-rule="evenodd" d="M7.50011 6.55556C7.50011 4.03009 9.52428 2 12.0001 2C14.4759 2 16.5001 4.03009 16.5001 6.55556C16.5001 9.08102 14.4759 11.1111 12.0001 11.1111C9.52428 11.1111 7.50011 9.08102 7.50011 6.55556ZM12.0001 0C8.40081 0 5.50011 2.94452 5.50011 6.55556C5.50011 10.1666 8.40081 13.1111 12.0001 13.1111C15.5994 13.1111 18.5001 10.1666 18.5001 6.55556C18.5001 2.94452 15.5994 0 12.0001 0ZM6.5 16.6667C4.77283 16.6667 3.11846 17.3598 1.90026 18.5903C0.682403 19.8205 0 21.4868 0 23.2222V26C0 26.5523 0.447715 27 1 27C1.55228 27 2 26.5523 2 26V23.2222C2 22.0108 2.47652 20.851 3.32156 19.9974C4.16627 19.1442 5.30979 18.6667 6.5 18.6667H17.5C18.6902 18.6667 19.8337 19.1442 20.6784 19.9974C21.5235 20.851 22 22.0108 22 23.2222V26C22 26.5523 22.4477 27 23 27C23.5523 27 24 26.5523 24 26V23.2222C24 21.4868 23.3176 19.8205 22.0997 18.5903C20.8815 17.3598 19.2272 16.6667 17.5 16.6667H6.5Z" fill="black"/>
</symbol><symbol id="logo" viewBox="0 0 160 50">
<path d="M0 49.5098V0.490194H7.24151V44.5378H25.8095V49.5098H0Z" fill="black"/>
<path d="M40.006 12.3249C40.006 8.54342 41.2129 5.55555 43.6267 3.36134C46.1025 1.12045 49.847 0 54.8603 0C59.8737 0 63.6182 1.12045 66.094 3.36134C68.5697 5.55555 69.8076 8.54342 69.8076 12.3249V37.6751C69.8076 41.4099 68.5697 44.3978 66.094 46.6387C63.6182 48.8796 59.8737 50 54.8603 50C49.847 50 46.1025 48.8796 43.6267 46.6387C41.2129 44.3978 40.006 41.4099 40.006 37.6751V12.3249ZM47.1546 37.9552C47.1546 40.1961 47.7736 41.9468 49.0114 43.2073C50.3112 44.4211 52.2608 45.028 54.8603 45.028C57.5218 45.028 59.4714 44.4211 60.7093 43.2073C61.9471 41.9468 62.5661 40.1961 62.5661 37.9552V12.0448C62.5661 9.80392 61.9471 8.07656 60.7093 6.86274C59.4714 5.60224 57.5218 4.97199 54.8603 4.97199C52.2608 4.97199 50.3112 5.60224 49.0114 6.86274C47.7736 8.07656 47.1546 9.80392 47.1546 12.0448V37.9552Z" fill="black"/>
<path d="M99.95 0C104.963 0 108.646 1.12045 110.998 3.36134C113.412 5.60224 114.619 8.5901 114.619 12.3249V16.5266H107.749V12.0448C107.749 9.80392 107.13 8.07656 105.892 6.86274C104.716 5.60224 102.797 4.97199 100.136 4.97199C97.5362 4.97199 95.6175 5.60224 94.3796 6.86274C93.1418 8.07656 92.5229 9.80392 92.5229 12.0448V37.9552C92.5229 40.1961 93.1418 41.9468 94.3796 43.2073C95.6175 44.4211 97.5362 45.028 100.136 45.028C102.797 45.028 104.716 44.4211 105.892 43.2073C107.13 41.9468 107.749 40.1961 107.749 37.9552V28.1513H101.064V23.2493H114.619V37.6751C114.619 41.4099 113.412 44.3978 110.998 46.6387C108.646 48.8796 104.963 50 99.95 50C94.9986 50 91.3159 48.8796 88.9021 46.6387C86.5502 44.3978 85.3742 41.4099 85.3742 37.6751V12.3249C85.3742 10.4575 85.6527 8.77684 86.2097 7.28291C86.8287 5.7423 87.7261 4.43511 88.9021 3.36134C90.14 2.28758 91.6564 1.47059 93.4513 0.910365C95.3081 0.303455 97.4743 0 99.95 0Z" fill="black"/>
<path d="M130.198 12.3249C130.198 8.54342 131.405 5.55555 133.819 3.36134C136.295 1.12045 140.039 0 145.053 0C150.066 0 153.811 1.12045 156.286 3.36134C158.762 5.55555 160 8.54342 160 12.3249V37.6751C160 41.4099 158.762 44.3978 156.286 46.6387C153.811 48.8796 150.066 50 145.053 50C140.039 50 136.295 48.8796 133.819 46.6387C131.405 44.3978 130.198 41.4099 130.198 37.6751V12.3249ZM137.347 37.9552C137.347 40.1961 137.966 41.9468 139.204 43.2073C140.504 44.4211 142.453 45.028 145.053 45.028C147.714 45.028 149.664 44.4211 150.902 43.2073C152.14 41.9468 152.758 40.1961 152.758 37.9552V12.0448C152.758 9.80392 152.14 8.07656 150.902 6.86274C149.664 5.60224 147.714 4.97199 145.053 4.97199C142.453 4.97199 140.504 5.60224 139.204 6.86274C137.966 8.07656 137.347 9.80392 137.347 12.0448V37.9552Z" fill="black"/>
</symbol></svg>